<?xml version="1.0" encoding="UTF-8" standalone="no"?>
<!DOCTYPE svg PUBLIC "-//W3C//DTD SVG 1.1//EN"
 "http://www.w3.org/Graphics/SVG/1.1/DTD/svg11.dtd">
<!-- Generated by graphviz version 2.43.0 (0)
 -->
<!-- Title: %3 Pages: 1 -->
<svg width="342pt" height="238pt"
 viewBox="0.00 0.00 342.00 237.74" xmlns="http://www.w3.org/2000/svg" xmlns:xlink="http://www.w3.org/1999/xlink">
<g id="graph0" class="graph" transform="scale(1 1) rotate(0) translate(36 201.74)">
<title>%3</title>
<polygon fill="dimgray" stroke="transparent" points="-36,36 -36,-201.74 306,-201.74 306,36 -36,36"/>
<text text-anchor="middle" x="135" y="-150.54" font-family="Helvetica,sans-Serif" font-size="14.00">Sweep&#39;s Plan &amp; Progress</text>
<!-- start -->
<g id="node1" class="node">
<title>start</title>
</g>
<!-- d8acfe2a&#45;e4c7&#45;4033&#45;b562&#45;2d8c7bd4bb09 -->
<g id="node3" class="node">
<title>d8acfe2a&#45;e4c7&#45;4033&#45;b562&#45;2d8c7bd4bb09</title>
<ellipse fill="#0ee832" stroke="black" cx="133.5" cy="-99.87" rx="78.48" ry="26.74"/>
<text text-anchor="middle" x="133.5" y="-103.67" font-family="Helvetica,sans-Serif" font-size="14.00">✓ Modify</text>
<text text-anchor="middle" x="133.5" y="-88.67" font-family="Helvetica,sans-Serif" font-size="14.00">test_stripe.py</text>
</g>
<!-- start&#45;&gt;d8acfe2a&#45;e4c7&#45;4033&#45;b562&#45;2d8c7bd4bb09 -->
<g id="edge2" class="edge">
<title>start&#45;&gt;d8acfe2a&#45;e4c7&#45;4033&#45;b562&#45;2d8c7bd4bb09</title>
<path fill="none" stroke="black" d="M4.33,-99.87C8.16,-99.87 24.78,-99.87 44.89,-99.87"/>
<polygon fill="black" stroke="black" points="45.01,-103.37 55.01,-99.87 45.01,-96.37 45.01,-103.37"/>
<text text-anchor="middle" x="29.51" y="-106.67" font-family="Helvetica,sans-Serif" font-size="14.00">Start</text>
</g>
<!-- end -->
<g id="node2" class="node">
<title>end</title>
</g>
<!-- d8acfe2a&#45;e4c7&#45;4033&#45;b562&#45;2d8c7bd4bb09&#45;&gt;end -->
<g id="edge3" class="edge">
<title>d8acfe2a&#45;e4c7&#45;4033&#45;b562&#45;2d8c7bd4bb09&#45;&gt;end</title>
<path fill="none" stroke="black" d="M212.22,-99.87C230.53,-99.87 247.78,-99.87 258.47,-99.87"/>
<polygon fill="black" stroke="black" points="258.8,-103.37 268.8,-99.87 258.8,-96.37 258.8,-103.37"/>
<text text-anchor="middle" x="240.49" y="-106.67" font-family="Helvetica,sans-Serif" font-size="14.00">Finish</text>
</g>
<!-- 31bf5af9&#45;a5a3&#45;4e34&#45;b288&#45;d6060a54e758 -->
<g id="node4" class="node">
<title>31bf5af9&#45;a5a3&#45;4e34&#45;b288&#45;d6060a54e758</title>
<polygon fill="yellow" stroke="black" points="267,-36 0,-36 0,0 267,0 267,-36"/>
<text text-anchor="middle" x="133.5" y="-14.3" font-family="Helvetica,sans-Serif" font-size="14.00">⋯ Ran sandbox for `test_stripe.py`.</text>
</g>
<!-- d8acfe2a&#45;e4c7&#45;4033&#45;b562&#45;2d8c7bd4bb09&#45;&gt;31bf5af9&#45;a5a3&#45;4e34&#45;b288&#45;d6060a54e758 -->
<g id="edge1" class="edge">
<title>d8acfe2a&#45;e4c7&#45;4033&#45;b562&#45;2d8c7bd4bb09&#45;&gt;31bf5af9&#45;a5a3&#45;4e34&#45;b288&#45;d6060a54e758</title>
<path fill="none" stroke="black" stroke-dasharray="5,2" d="M133.5,-72.72C133.5,-64.27 133.5,-54.89 133.5,-46.36"/>
<polygon fill="black" stroke="black" points="137,-46.15 133.5,-36.15 130,-46.15 137,-46.15"/>
</g>
</g>
</svg>
