<?xml version="1.0" encoding="UTF-8" standalone="no"?>
<!DOCTYPE svg PUBLIC "-//W3C//DTD SVG 1.1//EN"
 "http://www.w3.org/Graphics/SVG/1.1/DTD/svg11.dtd">
<!-- Generated by graphviz version 2.43.0 (0)
 -->
<!-- Title: %3 Pages: 1 -->
<svg width="622pt" height="415pt"
 viewBox="0.00 0.00 622.00 415.48" xmlns="http://www.w3.org/2000/svg" xmlns:xlink="http://www.w3.org/1999/xlink">
<g id="graph0" class="graph" transform="scale(1 1) rotate(0) translate(36 379.48)">
<title>%3</title>
<polygon fill="dimgray" stroke="transparent" points="-36,36 -36,-379.48 586,-379.48 586,36 -36,36"/>
<text text-anchor="middle" x="275" y="-328.28" font-family="Helvetica,sans-Serif" font-size="14.00">Sweep&#39;s Plan &amp; Progress</text>
<!-- start -->
<g id="node1" class="node">
<title>start</title>
</g>
<!-- d8acfe2a&#45;e4c7&#45;4033&#45;b562&#45;2d8c7bd4bb09 -->
<g id="node3" class="node">
<title>d8acfe2a&#45;e4c7&#45;4033&#45;b562&#45;2d8c7bd4bb09</title>
<ellipse fill="#0ee832" stroke="black" cx="339.5" cy="-277.61" rx="78.48" ry="26.74"/>
<text text-anchor="middle" x="339.5" y="-281.41" font-family="Helvetica,sans-Serif" font-size="14.00">✓ Modify</text>
<text text-anchor="middle" x="339.5" y="-266.41" font-family="Helvetica,sans-Serif" font-size="14.00">test_stripe.py</text>
</g>
<!-- start&#45;&gt;d8acfe2a&#45;e4c7&#45;4033&#45;b562&#45;2d8c7bd4bb09 -->
<g id="edge5" class="edge">
<title>start&#45;&gt;d8acfe2a&#45;e4c7&#45;4033&#45;b562&#45;2d8c7bd4bb09</title>
<path fill="none" stroke="black" d="M210.33,-277.61C214.16,-277.61 230.78,-277.61 250.89,-277.61"/>
<polygon fill="black" stroke="black" points="251.01,-281.11 261.01,-277.61 251.01,-274.11 251.01,-281.11"/>
<text text-anchor="middle" x="235.51" y="-284.41" font-family="Helvetica,sans-Serif" font-size="14.00">Start</text>
</g>
<!-- end -->
<g id="node2" class="node">
<title>end</title>
</g>
<!-- d8acfe2a&#45;e4c7&#45;4033&#45;b562&#45;2d8c7bd4bb09&#45;&gt;end -->
<g id="edge6" class="edge">
<title>d8acfe2a&#45;e4c7&#45;4033&#45;b562&#45;2d8c7bd4bb09&#45;&gt;end</title>
<path fill="none" stroke="black" d="M418.22,-277.61C436.53,-277.61 453.78,-277.61 464.47,-277.61"/>
<polygon fill="black" stroke="black" points="464.8,-281.11 474.8,-277.61 464.8,-274.11 464.8,-281.11"/>
<text text-anchor="middle" x="446.49" y="-284.41" font-family="Helvetica,sans-Serif" font-size="14.00">Finish</text>
</g>
<!-- 31bf5af9&#45;a5a3&#45;4e34&#45;b288&#45;d6060a54e758 -->
<g id="node4" class="node">
<title>31bf5af9&#45;a5a3&#45;4e34&#45;b288&#45;d6060a54e758</title>
<polygon fill="#ee0000" stroke="black" points="265,-213.74 0,-213.74 0,-177.74 265,-177.74 265,-213.74"/>
<text text-anchor="middle" x="132.5" y="-192.04" font-family="Helvetica,sans-Serif" font-size="14.00">✗ Ran sandbox for `test_stripe.py`.</text>
</g>
<!-- d8acfe2a&#45;e4c7&#45;4033&#45;b562&#45;2d8c7bd4bb09&#45;&gt;31bf5af9&#45;a5a3&#45;4e34&#45;b288&#45;d6060a54e758 -->
<g id="edge1" class="edge">
<title>d8acfe2a&#45;e4c7&#45;4033&#45;b562&#45;2d8c7bd4bb09&#45;&gt;31bf5af9&#45;a5a3&#45;4e34&#45;b288&#45;d6060a54e758</title>
<path fill="none" stroke="black" stroke-dasharray="5,2" d="M288.86,-257.07C257.73,-245.06 217.88,-229.68 186.2,-217.46"/>
<polygon fill="black" stroke="black" points="187.24,-214.11 176.65,-213.77 184.72,-220.64 187.24,-214.11"/>
</g>
<!-- 12142e8f&#45;9c48&#45;4bf0&#45;b364&#45;a6042effc49a -->
<g id="node5" class="node">
<title>12142e8f&#45;9c48&#45;4bf0&#45;b364&#45;a6042effc49a</title>
<polygon fill="yellow" stroke="black" points="550,-213.74 283,-213.74 283,-177.74 550,-177.74 550,-213.74"/>
<text text-anchor="middle" x="416.5" y="-192.04" font-family="Helvetica,sans-Serif" font-size="14.00">⋯ Ran sandbox for `test_stripe.py`.</text>
</g>
<!-- d8acfe2a&#45;e4c7&#45;4033&#45;b562&#45;2d8c7bd4bb09&#45;&gt;12142e8f&#45;9c48&#45;4bf0&#45;b364&#45;a6042effc49a -->
<g id="edge4" class="edge">
<title>d8acfe2a&#45;e4c7&#45;4033&#45;b562&#45;2d8c7bd4bb09&#45;&gt;12142e8f&#45;9c48&#45;4bf0&#45;b364&#45;a6042effc49a</title>
<path fill="none" stroke="black" stroke-dasharray="5,2" d="M363.44,-251.78C372.78,-242.09 383.45,-231.02 392.77,-221.36"/>
<polygon fill="black" stroke="black" points="395.47,-223.59 399.9,-213.96 390.44,-218.73 395.47,-223.59"/>
</g>
<!-- 3597a0d9&#45;244d&#45;4008&#45;9ff7&#45;86b4f7eb8f0c -->
<g id="node6" class="node">
<title>3597a0d9&#45;244d&#45;4008&#45;9ff7&#45;86b4f7eb8f0c</title>
<ellipse fill="#0ee832" stroke="black" cx="132.5" cy="-99.87" rx="78.48" ry="26.74"/>
<text text-anchor="middle" x="132.5" y="-103.67" font-family="Helvetica,sans-Serif" font-size="14.00">✓ Modify</text>
<text text-anchor="middle" x="132.5" y="-88.67" font-family="Helvetica,sans-Serif" font-size="14.00">test_stripe.py</text>
</g>
<!-- 31bf5af9&#45;a5a3&#45;4e34&#45;b288&#45;d6060a54e758&#45;&gt;3597a0d9&#45;244d&#45;4008&#45;9ff7&#45;86b4f7eb8f0c -->
<g id="edge2" class="edge">
<title>31bf5af9&#45;a5a3&#45;4e34&#45;b288&#45;d6060a54e758&#45;&gt;3597a0d9&#45;244d&#45;4008&#45;9ff7&#45;86b4f7eb8f0c</title>
<path fill="none" stroke="black" d="M132.5,-177.52C132.5,-166.22 132.5,-151.01 132.5,-137.12"/>
<polygon fill="black" stroke="black" points="136,-136.84 132.5,-126.84 129,-136.84 136,-136.84"/>
<text text-anchor="middle" x="230" y="-148.54" font-family="Helvetica,sans-Serif" font-size="14.00">Additional changes required</text>
</g>
<!-- 9c490afb&#45;4d12&#45;4046&#45;8bc8&#45;4c14b0b26d67 -->
<g id="node7" class="node">
<title>9c490afb&#45;4d12&#45;4046&#45;8bc8&#45;4c14b0b26d67</title>
<polygon fill="#0ee832" stroke="black" points="265,-36 0,-36 0,0 265,0 265,-36"/>
<text text-anchor="middle" x="132.5" y="-14.3" font-family="Helvetica,sans-Serif" font-size="14.00">✓ Ran sandbox for `test_stripe.py`.</text>
</g>
<!-- 3597a0d9&#45;244d&#45;4008&#45;9ff7&#45;86b4f7eb8f0c&#45;&gt;9c490afb&#45;4d12&#45;4046&#45;8bc8&#45;4c14b0b26d67 -->
<g id="edge3" class="edge">
<title>3597a0d9&#45;244d&#45;4008&#45;9ff7&#45;86b4f7eb8f0c&#45;&gt;9c490afb&#45;4d12&#45;4046&#45;8bc8&#45;4c14b0b26d67</title>
<path fill="none" stroke="black" stroke-dasharray="5,2" d="M132.5,-72.72C132.5,-64.27 132.5,-54.89 132.5,-46.36"/>
<polygon fill="black" stroke="black" points="136,-46.15 132.5,-36.15 129,-46.15 136,-46.15"/>
</g>
</g>
</svg>
